<svg xmlns="http://www.w3.org/2000/svg" viewBox="0 0 760 220" role="img" aria-labelledby="tasklyzen-title">
  <title id="tasklyzen-title">Tasklyzen</title>
  <defs>
    <linearGradient id="tlz-icon-bg" x1="18" y1="20" x2="168" y2="178" gradientUnits="userSpaceOnUse">
      <stop offset="0" stop-color="#32E0A6"/>
      <stop offset="0.48" stop-color="#16B7C8"/>
      <stop offset="1" stop-color="#0E7874"/>
    </linearGradient>
    <linearGradient id="tlz-paper" x1="62" y1="34" x2="125" y2="151" gradientUnits="userSpaceOnUse">
      <stop offset="0" stop-color="#FFFFFF"/>
      <stop offset="1" stop-color="#EFFFFB"/>
    </linearGradient>
    <linearGradient id="tlz-check" x1="48" y1="137" x2="154" y2="70" gradientUnits="userSpaceOnUse">
      <stop offset="0" stop-color="#FFB13D"/>
      <stop offset="0.44" stop-color="#FF745D"/>
      <stop offset="1" stop-color="#F95959"/>
    </linearGradient>
    <filter id="tlz-card-shadow" x="-20%" y="-18%" width="140%" height="145%" color-interpolation-filters="sRGB">
      <feDropShadow dx="0" dy="12" stdDeviation="9" flood-color="#173240" flood-opacity="0.16"/>
    </filter>
    <filter id="tlz-check-shadow" x="-20%" y="-25%" width="140%" height="150%" color-interpolation-filters="sRGB">
      <feDropShadow dx="0" dy="8" stdDeviation="6" flood-color="#173240" flood-opacity="0.2"/>
    </filter>
  </defs>

  <g transform="translate(24 20)" filter="url(#tlz-card-shadow)">
    <rect x="0" y="0" width="180" height="180" rx="50" fill="url(#tlz-icon-bg)"/>
    <path d="M42 28h96c13.3 0 24 10.7 24 24v82c0 13.3-10.7 24-24 24H42c-13.3 0-24-10.7-24-24V52c0-13.3 10.7-24 24-24Z" fill="#0E7874" opacity="0.16"/>
    <rect x="48" y="28" width="88" height="124" rx="24" fill="url(#tlz-paper)"/>
    <rect x="68" y="18" width="48" height="30" rx="15" fill="#2C3E50"/>
    <rect x="73" y="23" width="38" height="10" rx="5" fill="#74EAD7"/>
    <rect x="64" y="66" width="56" height="10" rx="5" fill="#C7F6ED"/>
    <rect x="64" y="88" width="44" height="10" rx="5" fill="#D9F8F1"/>
    <circle cx="72" cy="58" r="6" fill="#2C3E50"/>
    <circle cx="112" cy="58" r="6" fill="#2C3E50"/>
    <path d="M82 72c4.4 5.2 11.6 5.2 16 0" fill="none" stroke="#2C3E50" stroke-width="4.5" stroke-linecap="round"/>
    <ellipse cx="58" cy="70" rx="7" ry="4.5" fill="#FF8FAB" opacity="0.72"/>
    <ellipse cx="126" cy="70" rx="7" ry="4.5" fill="#FF8FAB" opacity="0.72"/>
    <path d="M48 118 78 148 150 72" fill="none" stroke="#FFFFFF" stroke-width="31" stroke-linecap="round" stroke-linejoin="round" opacity="0.82"/>
    <path d="M48 118 78 148 150 72" fill="none" stroke="url(#tlz-check)" stroke-width="22" stroke-linecap="round" stroke-linejoin="round" filter="url(#tlz-check-shadow)"/>
    <path d="M48 118 78 148 150 72" fill="none" stroke="#FFB6A6" stroke-width="8" stroke-linecap="round" stroke-linejoin="round" opacity="0.8"/>
  </g>

  <g transform="translate(236 67)">
    <text x="0" y="76" font-family="'Nunito', 'Varela Round', 'Arial Rounded MT Bold', 'Trebuchet MS', sans-serif" font-size="84" font-weight="1000" fill="#2C3E50">Taskly<tspan fill="#17AAA5">zen</tspan></text>
  </g>
</svg>
